<svg xmlns="http://www.w3.org/2000/svg" width="300" height="300" viewBox="0 0 300 300">
  <g id="Group_76" data-name="Group 76" transform="translate(-797 -568.974)">
    <path id="Path_116" data-name="Path 116" d="M82.753,244.787q-18.361,0-25.44-5.917t-7.08-23.527V168.284q-2.626,4.4-5.508,8.805t-6.032,8.532a10.564,10.564,0,0,1-7.344,4.265,10.827,10.827,0,0,1-8.392-2.063,10.211,10.211,0,0,1-3.934-7.566,12.13,12.13,0,0,1,2.359-8.119,193.531,193.531,0,0,0,27.406-51.187,256.949,256.949,0,0,0,13.769-57.79H34.234a9.607,9.607,0,0,1-7.6-3.3,11.331,11.331,0,0,1-2.886-7.706,11.188,11.188,0,0,1,2.886-7.842,9.8,9.8,0,0,1,7.6-3.167h84.449a9.815,9.815,0,0,1,7.607,3.167,11.216,11.216,0,0,1,2.884,7.842,11.36,11.36,0,0,1-2.884,7.706,9.621,9.621,0,0,1-7.607,3.3H84.064a287.869,287.869,0,0,1-5.508,32.2,301.893,301.893,0,0,1-8.916,31.1,89.906,89.906,0,0,1,13.113-.826q18.619,0,25.7,5.917t7.083,23.53v60.268q0,17.613-7.083,23.527t-25.7,5.917m0-21.738q7.082,0,9.442-2.478t2.359-10.181V159.752q0-7.7-2.359-10.044t-9.442-2.339q-7.346,0-9.7,2.339t-2.362,10.044v50.637q0,7.708,2.362,10.181t9.7,2.478M183.2,264.6q-24.656,0-35.013-8.118T137.828,226.9V185.071q0-16.511,7.607-23.253t23.866-6.743q10.751,0,13.767-3.028t3.018-12.933q0-9.631-2.886-12.659t-13.113-3.028H145.959q-7.081,0-9.442-6.6-.786,1.1-1.572,2.2t-1.574,2.2a11.929,11.929,0,0,1-7.607,5.091,10.745,10.745,0,0,1-8.655-1.789,10.83,10.83,0,0,1-2.623-15.135,191.312,191.312,0,0,0,16.261-25.318,295.972,295.972,0,0,0,13.637-28.757,262.976,262.976,0,0,0,9.705-27.657,10.851,10.851,0,0,1,5.376-7.156,11.778,11.778,0,0,1,9.048-.826,9.724,9.724,0,0,1,6.556,5.091,12.65,12.65,0,0,1,.787,9.221q-1.572,5.23-3.54,10.87t-4.066,11.144h45.9q21.244,0,30.292,8.668t9.048,29.859q-.264,23.394-1.048,44.857t-2.623,34.4q-2.626,18.164-11.934,24.905t-28.98,7.292a12.009,12.009,0,0,1-8.392-2.613,11.249,11.249,0,0,1-4.2-8.121,12.037,12.037,0,0,1,2.362-8.805,10.288,10.288,0,0,1,8.129-4.128,62.975,62.975,0,0,0,12.591-2.2,10.162,10.162,0,0,0,6.03-4.678,27.375,27.375,0,0,0,2.625-9.631,95.234,95.234,0,0,0,1.179-12.249q.395-8.112.787-18.024t.657-19.952q.258-10.042.261-17.75.258-12.106-4.195-16.374T209.428,77.2H159.072q-3.148,6.332-6.426,12.659t-6.95,12.383h32.26q11.8,0,18.358,3.026t9.179,11.009q2.619,7.985,2.625,22.84t-2.625,22.98q-2.622,8.118-9.179,11.144t-18.358,3.028q-9.707,0-13.506,3.3t-3.8,12.109v30.546q0,12.113,5.112,15.685t19.017,3.578H214.41q11.537,0,17.44-1.513a13.877,13.877,0,0,0,8.787-6.193q2.88-4.675,5.245-13.759a11.554,11.554,0,0,1,6.163-7.705,12.36,12.36,0,0,1,9.572-.55,10.6,10.6,0,0,1,6.3,5.777,15.245,15.245,0,0,1,.785,9.357q-3.144,14.861-9.048,22.977A31.167,31.167,0,0,1,243.391,261.3q-10.363,3.3-27.406,3.3Z" transform="translate(802.961 577.098)" fill="#fff"/>
    <path id="Path_117" data-name="Path 117" d="M276.471,115.955c7.569,0,13.725,6.407,13.725,14.283V381.267c0,7.876-6.157,14.283-13.725,14.283H23.529c-7.569,0-13.725-6.407-13.725-14.283V130.238c0-7.876,6.157-14.283,13.725-14.283Zm0-10.2H23.529C10.588,105.752,0,116.771,0,130.238V381.267c0,13.467,10.588,24.485,23.529,24.485H276.471c12.941,0,23.529-11.018,23.529-24.485V130.238c0-13.467-10.588-24.486-23.529-24.486" transform="translate(797 463.222)" fill="#fff"/>
  </g>
</svg>
